<svg width="55" height="77" viewBox="0 0 55 77" fill="none" xmlns="http://www.w3.org/2000/svg">
<path fill-rule="evenodd" clip-rule="evenodd" d="M30.4427 34.6386L30.7026 34.1559C33.3387 35.6906 39.4427 39.3762 42.7694 41.8416C42.7447 43.9208 42.5244 49.401 41.8412 54.6881C41.5318 57.3243 40.2595 63.8589 37.6457 68.9084C39.1432 66.9158 42.4872 61.3713 43.8833 55.1337C44.366 53.3639 45.465 48.0495 45.9996 40.9505C43.1531 39.3045 36.1679 35.5223 30.9996 33.5619L31.3709 32.7822C35.1952 33.8342 44.1283 36.5025 49.2669 38.7599C49.1556 41.4332 48.4947 48.4505 46.7422 55.1337C45.8368 58.5866 43.3412 67.4753 36.2719 76C36.3693 75.8994 36.4879 75.78 36.6269 75.6398C38.1305 74.1248 42.0298 70.1956 47.5219 61.6312C50.2694 56.5446 52.0887 50.6782 54.3907 36.7178C48.9699 34.9728 41.5813 33.0421 31.5937 32.0025L31.8907 31.4084C35.6036 31.2104 44.2768 31.0743 49.2669 32.1139C49.8363 28.3144 49.6308 19.4975 45.1457 14.6262C46.1358 17.3366 47.9823 24.0569 46.5566 29.255C42.9303 29.2302 34.9427 29.3812 32.0021 30.1832L31.5194 29.552C33.6976 28.2525 38.6704 25.5421 41.1358 25.0965C41.1438 25.0372 41.1519 24.9774 41.1601 24.9172C41.868 19.7099 42.9795 11.5342 35.4551 1C37.2744 4.75 40.215 13.802 38.314 23.2772L30.9254 28.6609L30.3684 27.8812L32.6333 25.5421C32.2249 24.8738 31.007 23.3812 29.4031 22.7574C30.1704 23.6733 31.2075 25.698 29.2174 26.4703H26.2843C25.4303 26.2475 24.1976 25.1931 26.0986 22.7574C25.3189 23.1163 23.6036 24.1757 22.9798 25.5421L24.6877 27.5842L24.3165 28.3267L17.1877 23.3144C16.3462 19.6881 15.658 10.1559 19.6382 1.03713C19.318 1.62679 19.0098 2.18896 18.7138 2.72871C14.6865 10.0738 12.9352 13.2678 14.1803 25.0965C15.5788 25.3936 19.3635 26.6856 23.314 29.4777L23.0912 29.9604C19.7001 29.6386 12.0937 29.0619 8.79666 29.3292C8.22735 26.6807 7.70507 20.0322 10.1704 14.6262C6.27191 20.1213 5.49221 24.1312 6.16052 32.2252C8.96993 31.6807 16.2892 30.755 23.0912 31.4084L23.314 32.0025C18.314 32.6337 6.85112 34.4604 0.999634 36.7178C1.16348 37.5953 1.32253 38.4557 1.47845 39.2991C2.91253 47.0566 4.08143 53.3797 6.27191 58.3639C9.98501 65.5044 13.1556 69.1728 17.0125 73.6354C17.6679 74.3937 18.3431 75.1749 19.0442 76C13.0665 67.7203 6.87339 57.3243 6.16052 38.7599C10.0962 37.1881 19.1927 33.7921 24.0937 32.7822L24.4278 33.5619C20.4179 35.2574 11.767 39.0941 9.53924 40.8762C9.56382 41.2066 9.58802 41.5383 9.61233 41.8715C10.1755 49.5913 10.798 58.1239 17.5962 68.9084C15.4798 64.2673 13.0887 58.9802 12.5838 41.8416C15.517 39.8738 22.0442 35.5817 24.6877 34.1559L24.9848 34.6386C23.6481 35.4926 20.5442 37.6386 18.8214 39.3911C18.71 40.1089 18.5541 42.7847 18.8214 47.745C20.0962 50.0594 23.6556 55.0668 27.6952 56.5817C29.762 55.7401 34.408 52.7946 36.4576 47.745C36.6184 46.5569 36.9031 43.2376 36.7546 39.4653C35.5169 38.3391 32.5219 35.797 30.4427 34.6386ZM23.7597 36.5693L23.7442 36.582C22.9564 37.2323 21.1701 38.7067 20.3438 39.651C20.3562 41.198 20.4701 44.7302 20.678 46.3341C21.6062 48.1658 24.4057 52.2079 27.7324 53.7227C29.4404 52.8316 33.4057 49.9876 34.7126 46.3341C34.7194 46.2627 34.7269 46.1848 34.7349 46.1008C34.859 44.8017 35.1211 42.0593 35.1211 39.7995C34.3909 39.0198 32.7003 37.2821 31.7795 36.5693C32.2374 37.1633 33.3166 38.6411 33.9701 39.7995C34.0319 40.5297 33.9913 42.3384 33.7473 43.8836C33.5245 45.2945 31.631 49.193 27.7324 50.8267C25.9874 50.1071 22.4082 47.711 21.7547 43.8836C21.6433 43.3638 21.4428 41.9307 21.5319 39.9109C21.9241 39.3095 22.6109 38.2847 23.1644 37.4587C23.3969 37.1118 23.6059 36.7999 23.7597 36.5693Z" fill="#EDF1F7"/>
<path d="M30.7026 34.1559L30.8284 33.9399L30.605 33.8099L30.4825 34.0374L30.7026 34.1559ZM30.4427 34.6386L30.2226 34.5201L30.1057 34.7371L30.321 34.857L30.4427 34.6386ZM42.7694 41.8416L43.0194 41.8446L43.0209 41.7168L42.9183 41.6407L42.7694 41.8416ZM41.8412 54.6881L41.5932 54.6561L41.5929 54.659L41.8412 54.6881ZM37.6457 68.9084L37.4236 68.7935L37.8455 69.0586L37.6457 68.9084ZM43.8833 55.1337L43.6418 55.0678L43.6393 55.0791L43.8833 55.1337ZM45.9996 40.9505L46.2489 40.9693L46.2607 40.8127L46.1248 40.7341L45.9996 40.9505ZM30.9996 33.5619L30.7739 33.4544L30.6572 33.6994L30.911 33.7956L30.9996 33.5619ZM31.3709 32.7822L31.4372 32.5411L31.2352 32.4856L31.1452 32.6747L31.3709 32.7822ZM49.2669 38.7599L49.5167 38.7703L49.5238 38.5997L49.3675 38.531L49.2669 38.7599ZM46.7422 55.1337L46.5004 55.0703L46.7422 55.1337ZM36.2719 76L36.0795 75.8404L36.4515 76.1739L36.2719 76ZM36.6269 75.6398L36.4495 75.4637H36.4495L36.6269 75.6398ZM47.5219 61.6312L47.7323 61.7661L47.7374 61.7582L47.7419 61.75L47.5219 61.6312ZM54.3907 36.7178L54.6374 36.7585L54.6724 36.5459L54.4673 36.4799L54.3907 36.7178ZM31.5937 32.0025L31.3701 31.8907L31.2085 32.2137L31.5678 32.2511L31.5937 32.0025ZM31.8907 31.4084L31.8774 31.1588L31.7321 31.1665L31.6671 31.2966L31.8907 31.4084ZM49.2669 32.1139L49.216 32.3586L49.475 32.4126L49.5142 32.1509L49.2669 32.1139ZM45.1457 14.6262L45.3296 14.4569L44.9108 14.712L45.1457 14.6262ZM46.5566 29.255L46.5548 29.5049L46.7469 29.5063L46.7976 29.3211L46.5566 29.255ZM32.0021 30.1832L31.8035 30.335L31.9056 30.4686L32.0679 30.4244L32.0021 30.1832ZM31.5194 29.552L31.3913 29.3373L31.1504 29.481L31.3208 29.7038L31.5194 29.552ZM41.1358 25.0965L41.1802 25.3426L41.359 25.3102L41.3835 25.1302L41.1358 25.0965ZM41.1601 24.9172L41.4078 24.9509L41.1601 24.9172ZM35.4551 1L35.6585 0.85469L35.2301 1.10912L35.4551 1ZM38.314 23.2772L38.4612 23.4793L38.5399 23.4219L38.5591 23.3264L38.314 23.2772ZM30.9254 28.6609L30.7219 28.8062L30.8686 29.0116L31.0726 28.8629L30.9254 28.6609ZM30.3684 27.8812L30.1888 27.7073L30.0439 27.857L30.165 28.0265L30.3684 27.8812ZM32.6333 25.5421L32.8129 25.716L32.9476 25.5769L32.8466 25.4117L32.6333 25.5421ZM29.4031 22.7574L29.4937 22.5244L29.2115 22.918L29.4031 22.7574ZM29.2174 26.4703V26.7203H29.2642L29.3079 26.7034L29.2174 26.4703ZM26.2843 26.4703L26.2212 26.7122L26.2522 26.7203H26.2843V26.4703ZM26.0986 22.7574L26.2957 22.9112L25.9941 22.5303L26.0986 22.7574ZM22.9798 25.5421L22.7524 25.4383L22.687 25.5816L22.7881 25.7025L22.9798 25.5421ZM24.6877 27.5842L24.9114 27.696L24.9846 27.5494L24.8795 27.4238L24.6877 27.5842ZM24.3165 28.3267L24.1727 28.5312L24.4102 28.6983L24.5401 28.4385L24.3165 28.3267ZM17.1877 23.3144L16.9442 23.3709L16.9658 23.4639L17.044 23.5189L17.1877 23.3144ZM19.6382 1.03713L19.8674 1.13714L19.4186 0.917814L19.6382 1.03713ZM18.7138 2.72871L18.4946 2.60851L18.4946 2.60851L18.7138 2.72871ZM14.1803 25.0965L13.9317 25.1227L13.9507 25.3033L14.1284 25.3411L14.1803 25.0965ZM23.314 29.4777L23.541 29.5825L23.6281 29.3936L23.4583 29.2736L23.314 29.4777ZM23.0912 29.9604L23.0676 30.2093L23.244 30.226L23.3182 30.0652L23.0912 29.9604ZM8.79666 29.3292L8.55224 29.3817L8.59832 29.5961L8.81686 29.5784L8.79666 29.3292ZM10.1704 14.6262L10.3979 14.73L9.96652 14.4816L10.1704 14.6262ZM6.16052 32.2252L5.91137 32.2458L5.93432 32.5237L6.2081 32.4707L6.16052 32.2252ZM23.0912 31.4084L23.3253 31.3206L23.2705 31.1745L23.1151 31.1596L23.0912 31.4084ZM23.314 32.0025L23.3453 32.2505L23.6591 32.2109L23.5481 31.9147L23.314 32.0025ZM0.999634 36.7178L0.909651 36.4846L0.71573 36.5594L0.753881 36.7637L0.999634 36.7178ZM1.47845 39.2991L1.72429 39.2537L1.47845 39.2991ZM6.27191 58.3639L6.04304 58.4644L6.04633 58.4719L6.05011 58.4792L6.27191 58.3639ZM17.0125 73.6354L16.8234 73.7988L17.0125 73.6354ZM19.0442 76L18.8537 76.1619L19.2469 75.8537L19.0442 76ZM6.16052 38.7599L6.0678 38.5277L5.90394 38.5932L5.91071 38.7695L6.16052 38.7599ZM24.0937 32.7822L24.3235 32.6837L24.2431 32.4961L24.0432 32.5373L24.0937 32.7822ZM24.4278 33.5619L24.5252 33.7921L24.7566 33.6943L24.6576 33.4634L24.4278 33.5619ZM9.53924 40.8762L9.38306 40.681L9.28015 40.7634L9.28993 40.8948L9.53924 40.8762ZM9.61233 41.8715L9.36299 41.8897V41.8897L9.61233 41.8715ZM17.5962 68.9084L17.3847 69.0417L17.8236 68.8047L17.5962 68.9084ZM12.5838 41.8416L12.4445 41.634L12.3298 41.7109L12.3339 41.8489L12.5838 41.8416ZM24.6877 34.1559L24.9007 34.0249L24.7769 33.8238L24.5691 33.9359L24.6877 34.1559ZM24.9848 34.6386L25.1194 34.8493L25.3265 34.7169L25.1977 34.5076L24.9848 34.6386ZM18.8214 39.3911L18.6431 39.2158L18.5867 39.2732L18.5744 39.3528L18.8214 39.3911ZM18.8214 47.745L18.5718 47.7585L18.5749 47.8156L18.6024 47.8657L18.8214 47.745ZM27.6952 56.5817L27.6074 56.8158L27.6989 56.8501L27.7895 56.8132L27.6952 56.5817ZM36.4576 47.745L36.6892 47.8391L36.7011 47.8098L36.7053 47.7786L36.4576 47.745ZM36.7546 39.4653L37.0044 39.4555L37.0003 39.3509L36.9228 39.2804L36.7546 39.4653ZM23.7442 36.582L23.5851 36.3892L23.5851 36.3892L23.7442 36.582ZM23.7597 36.5693L23.9677 36.7079L23.6005 36.3765L23.7597 36.5693ZM20.3438 39.651L20.1557 39.4863L20.0931 39.5579L20.0938 39.653L20.3438 39.651ZM20.678 46.3341L20.4301 46.3663L20.4356 46.4088L20.455 46.4471L20.678 46.3341ZM27.7324 53.7227L27.6288 53.9503L27.7399 54.0008L27.8481 53.9444L27.7324 53.7227ZM34.7126 46.3341L34.948 46.4183L34.9586 46.3889L34.9615 46.3577L34.7126 46.3341ZM34.7349 46.1008L34.9837 46.1245L34.7349 46.1008ZM35.1211 39.7995H35.3711V39.7007L35.3035 39.6286L35.1211 39.7995ZM31.7795 36.5693L31.9325 36.3716L31.5815 36.7219L31.7795 36.5693ZM33.9701 39.7995L34.2192 39.7784L34.2146 39.7241L34.1878 39.6766L33.9701 39.7995ZM33.7473 43.8836L33.5004 43.8446L33.7473 43.8836ZM27.7324 50.8267L27.6371 51.0578L27.7332 51.0974L27.8291 51.0573L27.7324 50.8267ZM21.7547 43.8836L22.0014 43.8415L21.9992 43.8312L21.7547 43.8836ZM21.5319 39.9109L21.3225 39.7743L21.2852 39.8315L21.2822 39.8998L21.5319 39.9109ZM23.1644 37.4587L22.9568 37.3195V37.3195L23.1644 37.4587ZM30.4825 34.0374L30.2226 34.5201L30.6628 34.7571L30.9227 34.2745L30.4825 34.0374ZM42.9183 41.6407C39.5792 39.1662 33.4643 35.4744 30.8284 33.9399L30.5768 34.372C33.2131 35.9067 39.3062 39.5862 42.6206 42.0424L42.9183 41.6407ZM42.0891 54.7202C42.7739 49.421 42.9946 43.9308 43.0194 41.8446L42.5194 41.8386C42.4948 43.9108 42.2749 49.3809 41.5933 54.6561L42.0891 54.7202ZM37.8677 69.0233C40.5009 63.9364 41.7783 57.3686 42.0895 54.7173L41.5929 54.659C41.2853 57.28 40.0181 63.7814 37.4236 68.7935L37.8677 69.0233ZM43.6393 55.0791C42.253 61.2733 38.9281 66.7859 37.4458 68.7582L37.8455 69.0586C39.3582 67.0458 42.7215 61.4693 44.1272 55.1883L43.6393 55.0791ZM45.7503 40.9317C45.2167 48.0174 44.1199 53.3157 43.6421 55.0679L44.1245 55.1994C44.612 53.412 45.7132 48.0816 46.2489 40.9693L45.7503 40.9317ZM30.911 33.7956C36.0597 35.7486 43.0306 39.5224 45.8745 41.1669L46.1248 40.7341C43.2756 39.0865 36.2762 35.296 31.0883 33.3281L30.911 33.7956ZM31.1452 32.6747L30.7739 33.4544L31.2253 33.6694L31.5966 32.8897L31.1452 32.6747ZM49.3675 38.531C44.2106 36.2656 35.2618 33.5932 31.4372 32.5411L31.3046 33.0232C35.1286 34.0751 44.0461 36.7394 49.1664 38.9888L49.3675 38.531ZM46.984 55.1971C48.7421 48.4924 49.4048 41.4566 49.5167 38.7703L49.0172 38.7495C48.9063 41.4097 48.2472 48.4086 46.5004 55.0703L46.984 55.1971ZM36.4643 76.1596C43.5688 67.5925 46.0756 58.6614 46.984 55.1971L46.5004 55.0703C45.5979 58.5119 43.1136 67.358 36.0795 75.8404L36.4643 76.1596ZM36.4495 75.4637C36.3108 75.6035 36.191 75.7242 36.0923 75.8261L36.4515 76.1739C36.5476 76.0747 36.665 75.9564 36.8044 75.8159L36.4495 75.4637ZM47.3114 61.4962C41.8312 70.0422 37.9441 73.9577 36.4495 75.4637L36.8044 75.8159C38.3169 74.2919 42.2284 70.349 47.7323 61.7661L47.3114 61.4962ZM54.144 36.6772C51.8431 50.6312 50.029 56.4636 47.3019 61.5124L47.7419 61.75C50.5098 56.6255 52.3344 50.7252 54.6374 36.7585L54.144 36.6772ZM31.5678 32.2511C41.5353 33.2886 48.9068 35.2151 54.3141 36.9558L54.4673 36.4799C49.0331 34.7305 41.6273 32.7955 31.6196 31.7538L31.5678 32.2511ZM31.6671 31.2966L31.3701 31.8907L31.8173 32.1143L32.1143 31.5202L31.6671 31.2966ZM49.3179 31.8691C44.2926 30.8222 35.5898 30.9608 31.8774 31.1588L31.904 31.6581C35.6173 31.46 44.2611 31.3263 49.216 32.3586L49.3179 31.8691ZM44.9618 14.7956C47.1574 17.1803 48.318 20.5474 48.855 23.8125C49.3916 27.0747 49.3005 30.2026 49.0197 32.0768L49.5142 32.1509C49.8027 30.2256 49.8935 27.0454 49.3484 23.7314C48.8038 20.4204 47.619 16.9435 45.3296 14.4569L44.9618 14.7956ZM46.7976 29.3211C47.5237 26.6739 47.4138 23.6546 47.0042 20.97C46.5941 18.2822 45.8802 15.9084 45.3805 14.5405L44.9108 14.712C45.4013 16.0545 46.1057 18.396 46.5099 21.0454C46.9146 23.6981 47.0151 26.638 46.3155 29.1888L46.7976 29.3211ZM32.0679 30.4244C33.5075 30.0317 36.2123 29.7938 39.0342 29.6587C41.8465 29.5241 44.7453 29.4926 46.5548 29.5049L46.5583 29.005C44.7415 28.9926 41.8334 29.0242 39.0103 29.1593C36.1966 29.294 33.4373 29.5326 31.9363 29.942L32.0679 30.4244ZM31.3208 29.7038L31.8035 30.335L32.2007 30.0313L31.718 29.4001L31.3208 29.7038ZM41.0913 24.8505C39.82 25.0803 37.9317 25.8847 36.1097 26.7796C34.279 27.6788 32.4852 28.6847 31.3913 29.3373L31.6475 29.7667C32.7318 29.1198 34.5136 28.1207 36.3301 27.2284C38.1554 26.3319 39.9862 25.5583 41.1802 25.3426L41.0913 24.8505ZM40.9124 24.8836C40.9042 24.9437 40.8961 25.0035 40.888 25.0629L41.3835 25.1302C41.3915 25.0708 41.3997 25.0111 41.4078 24.9509L40.9124 24.8836ZM35.2516 1.14531C38.9913 6.38082 40.5789 11.0208 41.1473 14.9916C41.7161 18.9656 41.2662 22.2808 40.9124 24.8836L41.4078 24.9509C41.7619 22.3464 42.2218 18.9701 41.6422 14.9208C41.0622 10.8684 39.4433 6.15342 35.6585 0.85469L35.2516 1.14531ZM38.5591 23.3264C40.4744 13.7798 37.5138 4.67076 35.68 0.890877L35.2301 1.10912C37.035 4.82924 39.9555 13.8241 38.0689 23.2281L38.5591 23.3264ZM31.0726 28.8629L38.4612 23.4793L38.1667 23.0752L30.7781 28.4588L31.0726 28.8629ZM30.165 28.0265L30.7219 28.8062L31.1288 28.5156L30.5719 27.7359L30.165 28.0265ZM32.4537 25.3682L30.1888 27.7073L30.548 28.0551L32.8129 25.716L32.4537 25.3682ZM29.3125 22.9904C30.845 23.5864 32.0261 25.0279 32.42 25.6724L32.8466 25.4117C32.4236 24.7196 31.1691 23.176 29.4937 22.5244L29.3125 22.9904ZM29.3079 26.7034C29.8479 26.4938 30.2086 26.1882 30.4134 25.8129C30.617 25.4398 30.6504 25.0271 30.5916 24.631C30.4756 23.8492 29.9927 23.0719 29.5947 22.5969L29.2115 22.918C29.5808 23.3588 30.0002 24.0518 30.097 24.7044C30.1447 25.0255 30.1121 25.3211 29.9745 25.5734C29.838 25.8236 29.5821 26.0606 29.127 26.2372L29.3079 26.7034ZM26.2843 26.7203H29.2174V26.2203H26.2843V26.7203ZM25.9016 22.6036C24.9307 23.8475 24.7075 24.805 24.9187 25.515C25.1294 26.223 25.7427 26.5874 26.2212 26.7122L26.3474 26.2284C25.9719 26.1304 25.5419 25.8562 25.398 25.3724C25.2546 24.8906 25.3656 24.103 26.2957 22.9112L25.9016 22.6036ZM23.2072 25.6459C23.4957 25.0142 24.0459 24.4371 24.6364 23.9676C25.2241 23.5003 25.8305 23.1561 26.2032 22.9845L25.9941 22.5303C25.587 22.7177 24.946 23.0826 24.3252 23.5763C23.707 24.0678 23.0878 24.7037 22.7524 25.4383L23.2072 25.6459ZM24.8795 27.4238L23.1716 25.3817L22.7881 25.7025L24.496 27.7445L24.8795 27.4238ZM24.5401 28.4385L24.9114 27.696L24.4641 27.4724L24.0929 28.2149L24.5401 28.4385ZM17.044 23.5189L24.1727 28.5312L24.4603 28.1222L17.3315 23.1098L17.044 23.5189ZM19.4091 0.93712C15.4026 10.1163 16.0935 19.7054 16.9442 23.3709L17.4313 23.2578C16.5988 19.6708 15.9135 10.1956 19.8674 1.13714L19.4091 0.93712ZM18.933 2.8489C19.2289 2.3092 19.5374 1.74661 19.8579 1.15644L19.4186 0.917814C19.0986 1.50697 18.7906 2.06871 18.4946 2.60851L18.933 2.8489ZM14.429 25.0704C13.8077 19.1684 13.937 15.4457 14.7127 12.2909C15.4891 9.13306 16.9162 6.52715 18.933 2.8489L18.4946 2.60851C16.4841 6.27534 15.0219 8.93895 14.2271 12.1715C13.4316 15.4072 13.3078 19.1959 13.9317 25.1227L14.429 25.0704ZM23.4583 29.2736C19.4805 26.4622 15.6645 25.1562 14.2323 24.852L14.1284 25.3411C15.4932 25.6309 19.2465 26.9091 23.1697 29.6819L23.4583 29.2736ZM23.3182 30.0652L23.541 29.5825L23.087 29.373L22.8642 29.8556L23.3182 30.0652ZM8.81686 29.5784C12.0876 29.3132 19.6706 29.8869 23.0676 30.2093L23.1148 29.7115C19.7296 29.3903 12.0997 28.8106 8.77645 29.08L8.81686 29.5784ZM9.94296 14.5225C7.4464 19.9969 7.97718 26.7065 8.55224 29.3817L9.04107 29.2767C8.47752 26.6549 7.96375 20.0675 10.3979 14.73L9.94296 14.5225ZM6.40968 32.2047C6.07623 28.1662 6.1064 25.1697 6.69699 22.5052C7.28648 19.8456 8.43821 17.4999 10.3743 14.7709L9.96652 14.4816C8.00412 17.2476 6.81675 19.6543 6.20884 22.397C5.60202 25.1347 5.57651 28.1902 5.91137 32.2458L6.40968 32.2047ZM23.1151 31.1596C16.2819 30.5031 8.93734 31.4324 6.11295 31.9798L6.2081 32.4707C9.00252 31.929 16.2965 31.0068 23.0673 31.6573L23.1151 31.1596ZM23.5481 31.9147L23.3253 31.3206L22.8571 31.4962L23.0799 32.0903L23.5481 31.9147ZM1.08962 36.9511C6.90878 34.7061 18.3427 32.882 23.3453 32.2505L23.2827 31.7544C18.2853 32.3853 6.79346 34.2147 0.909651 36.4846L1.08962 36.9511ZM1.72429 39.2537C1.56837 38.4103 1.40928 37.5497 1.24539 36.6719L0.753881 36.7637C0.917676 37.6409 1.07669 38.5011 1.23262 39.3446L1.72429 39.2537ZM6.50078 58.2633C4.32454 53.3115 3.16019 47.0211 1.72429 39.2537L1.23262 39.3446C2.66486 47.0922 3.83833 53.4479 6.04304 58.4644L6.50078 58.2633ZM17.2017 73.4719C13.3479 69.0131 10.193 65.3625 6.49371 58.2485L6.05011 58.4792C9.77705 65.6464 12.9632 69.3326 16.8234 73.7988L17.2017 73.4719ZM19.2347 75.8381C18.5329 75.0121 17.857 74.2301 17.2017 73.4719L16.8234 73.7988C17.4788 74.5572 18.1534 75.3377 18.8537 76.1619L19.2347 75.8381ZM5.91071 38.7695C6.62607 57.3988 12.8457 67.8417 18.8415 76.1463L19.2469 75.8537C13.2872 67.5989 7.12072 57.2498 6.41034 38.7503L5.91071 38.7695ZM24.0432 32.5373C19.1173 33.5524 10.0009 36.957 6.0678 38.5277L6.25325 38.9921C10.1914 37.4193 19.2681 34.0318 24.1441 33.027L24.0432 32.5373ZM24.6576 33.4634L24.3235 32.6837L23.8639 32.8807L24.1981 33.6604L24.6576 33.4634ZM9.69541 41.0715C10.2329 40.6415 11.1733 40.0768 12.3597 39.4402C13.5416 38.8062 14.953 38.1085 16.4223 37.4125C19.3606 36.0206 22.5224 34.639 24.5252 33.7921L24.3305 33.3316C22.3234 34.1803 19.1548 35.5648 16.2082 36.9606C14.735 37.6585 13.3154 38.3601 12.1233 38.9996C10.9358 39.6367 9.95948 40.2199 9.38306 40.681L9.69541 41.0715ZM9.86167 41.8533C9.83736 41.5201 9.81314 41.1882 9.78855 40.8577L9.28993 40.8948C9.31449 41.2249 9.33868 41.5564 9.36299 41.8897L9.86167 41.8533ZM17.8077 68.7751C11.0437 58.0449 10.4242 49.5641 9.86167 41.8533L9.36299 41.8897C9.92685 49.6185 10.5523 58.203 17.3847 69.0417L17.8077 68.7751ZM12.3339 41.8489C12.5867 50.4282 13.3118 56.052 14.242 60.1173C15.1732 64.1868 16.3086 66.6873 17.3687 69.0121L17.8236 68.8047C16.7674 66.4884 15.6491 64.0249 14.7294 60.0058C13.8088 55.9826 13.0859 50.3936 12.8337 41.8342L12.3339 41.8489ZM24.5691 33.9359C21.9125 35.3686 15.3741 39.6686 12.4445 41.634L12.7231 42.0492C15.6598 40.079 22.1758 35.7947 24.8064 34.376L24.5691 33.9359ZM25.1977 34.5076L24.9007 34.0249L24.4748 34.287L24.7719 34.7696L25.1977 34.5076ZM18.9997 39.5663C20.7013 37.8354 23.7848 35.702 25.1194 34.8493L24.8502 34.4279C23.5115 35.2832 20.387 37.4419 18.6431 39.2158L18.9997 39.5663ZM19.0711 47.7316C18.8039 42.7744 18.9613 40.1203 19.0685 39.4294L18.5744 39.3528C18.4588 40.0975 18.3043 42.7949 18.5718 47.7585L19.0711 47.7316ZM27.783 56.3476C25.8185 55.6109 23.9511 54.015 22.4075 52.2961C20.867 50.5809 19.6693 48.7662 19.0404 47.6244L18.6024 47.8657C19.2483 49.0382 20.4676 50.8845 22.0355 52.6302C23.6001 54.3724 25.5322 56.0376 27.6074 56.8158L27.783 56.3476ZM36.2259 47.651C34.2099 52.6179 29.6287 55.5244 27.6009 56.3501L27.7895 56.8132C29.8953 55.9558 34.6062 52.9712 36.6892 47.8391L36.2259 47.651ZM36.5048 39.4752C36.6527 43.2321 36.3689 46.5369 36.2098 47.7115L36.7053 47.7786C36.868 46.5769 37.1535 43.2431 37.0044 39.4555L36.5048 39.4752ZM30.321 34.857C32.3726 36 35.3491 38.5243 36.5863 39.6502L36.9228 39.2804C35.6848 38.1539 32.6712 35.594 30.5644 34.4202L30.321 34.857ZM23.9033 36.7748L23.9188 36.7621L23.6005 36.3765L23.5851 36.3892L23.9033 36.7748ZM20.532 39.8156C21.3416 38.8903 23.1084 37.431 23.9034 36.7748L23.5851 36.3892C22.8044 37.0336 20.9986 38.523 20.1557 39.4863L20.532 39.8156ZM20.9259 46.302C20.7201 44.7145 20.6062 41.1958 20.5938 39.649L20.0938 39.653C20.1062 41.2002 20.22 44.7458 20.4301 46.3663L20.9259 46.302ZM27.836 53.4952C26.2197 52.7592 24.7161 51.4003 23.4951 49.984C22.276 48.5698 21.3555 47.1181 20.901 46.2211L20.455 46.4471C20.9287 47.3818 21.8721 48.867 23.1164 50.3105C24.359 51.7519 25.9185 53.1714 27.6288 53.9503L27.836 53.4952ZM34.4772 46.2499C33.8425 48.0244 32.5555 49.6165 31.2022 50.8817C29.8502 52.1456 28.4504 53.0662 27.6168 53.5011L27.8481 53.9444C28.7224 53.4882 30.1592 52.5412 31.5436 51.2469C32.9267 49.9539 34.2759 48.2973 34.948 46.4183L34.4772 46.2499ZM34.486 46.077C34.478 46.1609 34.4705 46.239 34.4638 46.3105L34.9615 46.3577C34.9683 46.2864 34.9757 46.2086 34.9837 46.1245L34.486 46.077ZM34.8711 39.7995C34.8711 42.0454 34.6103 44.7759 34.486 46.077L34.9837 46.1245C35.1077 44.8275 35.3711 42.0732 35.3711 39.7995H34.8711ZM31.6264 36.767C32.5287 37.4655 34.2059 39.188 34.9386 39.9704L35.3035 39.6286C34.5758 38.8516 32.8718 37.0988 31.9325 36.3716L31.6264 36.767ZM34.1878 39.6766C33.5254 38.5024 32.4375 37.0135 31.9775 36.4166L31.5815 36.7219C32.0373 37.3132 33.1078 38.7797 33.7523 39.9223L34.1878 39.6766ZM33.9942 43.9226C34.2409 42.3605 34.283 40.5314 34.2192 39.7784L33.721 39.8206C33.7809 40.5279 33.7417 42.3163 33.5004 43.8446L33.9942 43.9226ZM27.8291 51.0573C29.8305 50.2186 31.3121 48.801 32.3202 47.419C33.3244 46.0424 33.8749 44.6785 33.9942 43.9226L33.5004 43.8446C33.3969 44.4997 32.8893 45.7905 31.9163 47.1243C30.9473 48.4527 29.5329 49.8012 27.6358 50.5961L27.8291 51.0573ZM21.5083 43.9257C21.8465 45.9068 22.9401 47.5078 24.1595 48.6994C25.3781 49.8902 26.7365 50.6864 27.6371 51.0578L27.8278 50.5956C26.9834 50.2474 25.6796 49.4858 24.509 48.3418C23.3391 47.1986 22.3164 45.6879 22.0012 43.8416L21.5083 43.9257ZM21.2822 39.8998C21.1922 41.9391 21.3941 43.3937 21.5103 43.936L21.9992 43.8312C21.8926 43.334 21.6935 41.9222 21.7817 39.9219L21.2822 39.8998ZM22.9568 37.3195C22.4037 38.1448 21.7158 39.1713 21.3225 39.7743L21.7414 40.0474C22.1325 39.4477 22.8182 38.4245 23.3721 37.5979L22.9568 37.3195ZM23.5517 36.4306C23.3981 36.6609 23.1893 36.9725 22.9568 37.3195L23.3721 37.5979C23.6045 37.251 23.8137 36.9389 23.9677 36.7079L23.5517 36.4306Z" fill="#EDF1F7"/>
</svg>
